<?xml version="1.0" encoding="UTF-8"?>
<svg version="1.1" xmlns="http://www.w3.org/2000/svg" width="769" height="577">
<path d="M0 0 C253.77 0 507.54 0 769 0 C769 190.41 769 380.82 769 577 C515.23 577 261.46 577 0 577 C0 386.59 0 196.18 0 0 Z " fill="#E30101" transform="translate(0,0)"/>
<path d="M0 0 C253.77 0 507.54 0 769 0 C769 190.41 769 380.82 769 577 C515.23 577 261.46 577 0 577 C0 386.59 0 196.18 0 0 Z M30 32 C30 98.66 30 165.32 30 234 C32.84429283 231.15570717 34.73908066 228.47380264 36.9375 225.125 C53.19400493 201.18955997 77.4479863 184.70374572 105.87568665 178.95910645 C112.88687158 177.68215358 119.83524776 177.58160572 126.94384766 177.66381836 C129.130907 177.68756413 131.31674882 177.68432661 133.50390625 177.67773438 C145.49462762 177.69923899 156.9933521 178.61610113 168.1875 183.1875 C168.95360596 183.49357178 169.71971191 183.79964355 170.5090332 184.11499023 C176.62460718 186.65131678 181.88296415 189.77672665 187 194 C187.64066406 194.49242187 188.28132812 194.98484375 188.94140625 195.4921875 C192.94588501 198.69231091 195.89893647 202.26746545 198.8359375 206.4609375 C199.22007812 206.96882812 199.60421875 207.47671875 200 208 C200.33 208 200.66 208 201 208 C201 199.42 201 190.84 201 182 C217.83 182 234.66 182 252 182 C252 256.25 252 330.5 252 407 C235.5 407 219 407 202 407 C202 398.09 202 389.18 202 380 C199.62956438 382.37043562 197.87273595 384.5009931 195.9375 387.1875 C186.46287493 399.37198652 172.90503845 405.88705283 158 409 C157.03707031 409.20496094 156.07414062 409.40992188 155.08203125 409.62109375 C138.00726934 412.63673379 119.79656898 412.26843502 103 408 C101.83855469 407.73316406 100.67710938 407.46632813 99.48046875 407.19140625 C80.30295602 402.3486 64.07195666 391.57785706 50 378 C49.2678125 377.33097656 48.535625 376.66195313 47.78125 375.97265625 C42.63592562 371.14381016 38.85830524 365.70997233 34.98046875 359.85546875 C33.00655025 356.82850424 33.00655025 356.82850424 30 354 C30 415.05 30 476.1 30 539 C262.65 539 495.3 539 735 539 C735 484.22 735 429.44 735 373 C731.66520714 376.31672858 731.66520714 376.31672858 728.40234375 379.703125 C710.05484952 399.07807891 682.66251409 411.07662289 656 412 C654.08767578 412.07734375 654.08767578 412.07734375 652.13671875 412.15625 C619.4992911 413.04012685 589.32857783 402.70666407 565.31420898 380.28881836 C542.19907093 358.00264756 529.48627015 327.42027219 528.59106445 295.47143555 C528.27345998 263.12735611 540.44581598 234.19756803 563 211 C570.93750877 203.03990941 579.25704134 196.61114221 589 191 C590.08796875 190.37222656 591.1759375 189.74445313 592.296875 189.09765625 C599.10289866 185.44700741 605.93904003 182.87025055 613.3125 180.625 C614.13637207 180.37403564 614.96024414 180.12307129 615.80908203 179.86450195 C645.37806424 171.3385311 679.60894226 176.24881769 706.2890625 190.79296875 C715.92792503 196.72562076 724.22414575 203.97009794 732.06640625 212.09375 C733.66614595 214.11700894 733.66614595 214.11700894 735 214 C735 153.94 735 93.88 735 32 C502.35 32 269.7 32 30 32 Z " fill="#FEFEFE" transform="translate(0,0)"/>
<path d="M0 0 C0.72605438 0.00182281 1.45210876 0.00364563 2.20016479 0.00552368 C13.64805025 0.05384692 24.77991268 0.57298605 35.9375 3.3125 C36.61973633 3.47878906 37.30197266 3.64507812 38.00488281 3.81640625 C64.64376413 10.61782276 88.27076247 27.03564941 102.75390625 50.51953125 C110.69588384 64.01845589 115.27004127 78.08577297 118.1875 93.4375 C118.3630542 94.3437915 118.5386084 95.25008301 118.71948242 96.18383789 C119.90963824 102.82552015 119.9375 108.36832083 119.9375 115.3125 C100.7975 115.3125 81.6575 115.3125 61.9375 115.3125 C60.9475 107.3925 60.9475 107.3925 59.9375 99.3125 C55.96515374 84.16951125 47.78158619 70.87682746 34.15625 62.62890625 C31.13288699 61.03368445 28.08469593 59.64552284 24.9375 58.3125 C24.03257812 57.89742187 23.12765625 57.48234375 22.1953125 57.0546875 C14.4892339 54.068321 7.00535525 53.92910485 -1.1875 53.875 C-2.28400879 53.86484863 -3.38051758 53.85469727 -4.51025391 53.84423828 C-21.47064754 54.02529195 -35.18272298 60.28342596 -47.0625 72.3125 C-47.62582031 72.85390625 -48.18914062 73.3953125 -48.76953125 73.953125 C-59.9221111 85.60595249 -63.54423825 102.10618849 -63.41870117 117.71191406 C-63.22833177 124.21077943 -62.15807602 130.14319647 -60.0625 136.3125 C-59.7840625 137.18261719 -59.505625 138.05273438 -59.21875 138.94921875 C-56.94107002 145.36010249 -53.53066992 150.22375093 -49.0625 155.3125 C-48.56234375 155.90675781 -48.0621875 156.50101563 -47.546875 157.11328125 C-29.95663626 176.43589199 -0.69164337 183.06934206 23.20019531 190.66943359 C59.7908701 202.32084889 94.80709068 217.56667051 113.9375 253.3125 C129.95202403 286.34245582 131.77388177 325.12528367 119.83105469 359.79248047 C108.48979771 390.91377729 84.49965645 414.37074184 54.84643555 428.32202148 C21.07952518 443.65857768 -20.14749581 445.59566141 -55.125 433 C-71.59379383 426.67953483 -85.2374147 417.38447148 -98.0625 405.3125 C-98.65417969 404.78527344 -99.24585938 404.25804687 -99.85546875 403.71484375 C-126.01790195 379.41671695 -136.49193267 340.68904223 -139.0625 306.3125 C-139.0625 303.3425 -139.0625 300.3725 -139.0625 297.3125 C-120.5825 297.3125 -102.1025 297.3125 -83.0625 297.3125 C-82.5675 306.2225 -82.5675 306.2225 -82.0625 315.3125 C-77.15192044 340.04077565 -67.26525297 362.44492498 -46.1875 377.375 C-28.05557889 388.61679109 -5.88644648 391.50533816 15.01953125 387.19140625 C26.11607568 383.84907359 36.05600927 378.81307155 44.9375 371.3125 C45.65292969 370.70921875 46.36835938 370.1059375 47.10546875 369.484375 C57.63162816 359.79297871 62.37106927 347.76697471 65.9375 334.3125 C66.11780762 333.66603516 66.29811523 333.01957031 66.48388672 332.35351562 C70.34285221 314.99024787 65.65812331 294.56291432 56.75 279.625 C39.69801774 254.43042236 8.5760512 244.49469958 -18.63134766 234.37084961 C-30.00281113 230.13466468 -41.17155672 225.68629027 -52.0625 220.3125 C-52.92713867 219.88904297 -53.79177734 219.46558594 -54.68261719 219.02929688 C-83.19670796 204.93950442 -104.8277456 187.62801668 -115.875 157 C-125.23814361 126.66467999 -123.52739698 92.91393372 -108.8125 64.625 C-104.86845138 57.30539204 -100.37627245 50.72439005 -95.0625 44.3125 C-94.37800781 43.47589844 -93.69351563 42.63929687 -92.98828125 41.77734375 C-69.46156873 14.33676039 -35.88953119 -0.18690597 0 0 Z " fill="#FEFDFD" transform="translate(405.0625,67.6875)"/>
<path d="M0 0 C0.88244385 0.00749268 1.7648877 0.01498535 2.67407227 0.02270508 C8.67555369 0.12210965 14.30890452 0.41843877 20.0625 2.25 C21.0834375 2.56839844 22.104375 2.88679687 23.15625 3.21484375 C34.24853996 7.0634537 47.03581048 14.30326208 52.5559082 25.19726562 C54.42963768 28.77124622 56.1607696 31.42987175 59.0625 34.25 C64.63915028 35.88503101 69.74784357 35.70758253 75.5625 35.5 C83.235 35.37625 83.235 35.37625 91.0625 35.25 C91.0625 55.71 91.0625 76.17 91.0625 97.25 C80.1725 97.25 69.2825 97.25 58.0625 97.25 C57.0725 100.22 56.0825 103.19 55.0625 106.25 C48.36528814 117.90193648 39.46538536 125.40159936 27.0625 130.25 C26.23621094 130.600625 25.40992188 130.95125 24.55859375 131.3125 C8.85999698 137.20868658 -9.55764351 135.31369307 -24.70703125 129.1171875 C-41.31808361 121.41129224 -51.99112372 108.0013367 -58.89453125 91.3671875 C-64.73170223 73.92126076 -63.77426608 53.54896069 -56.39453125 36.734375 C-48.19225703 20.59259964 -36.18945495 8.41141248 -18.9375 2.25 C-12.6038163 0.41884576 -6.5716513 -0.07381043 0 0 Z " fill="#E30101" transform="translate(643.9375,226.75)"/>
<path d="M0 0 C13.74117022 10.19615087 24.12681147 25.45242349 27.53125 42.3125 C29.94415936 61.29405363 26.88769022 78.05415689 15.9296875 94.015625 C5.45458415 107.45679704 -8.83042809 117.69931539 -26 120 C-44.33960999 121.45627633 -59.97223918 118.06070046 -74.9453125 106.78125 C-88.06861146 95.52226371 -97.76945407 79.82082002 -99.22143555 62.33300781 C-99.70047398 50.6767464 -99.75726015 39.82471653 -95 29 C-94.45666016 27.68902344 -94.45666016 27.68902344 -93.90234375 26.3515625 C-87.04623562 11.24488356 -74.06761083 -0.3814096 -59 -7 C-38.6826425 -14.60073806 -18.12153127 -11.40381925 0 0 Z " fill="#E30101" transform="translate(168,239)"/>
</svg>
